<svg xmlns="http://www.w3.org/2000/svg" width="960" height="560" viewBox="0 0 960 560" role="img" aria-labelledby="title desc">
  <title id="title">FarmStock project preview</title>
  <desc id="desc">Stylized farm inventory dashboard preview for the FarmStock project.</desc>
  <rect width="960" height="560" rx="42" fill="#052e16"/>
  <rect x="44" y="44" width="872" height="472" rx="32" fill="#0f172a"/>
  <text x="94" y="142" fill="#f0fdf4" font-family="Arial, sans-serif" font-size="56" font-weight="800">FarmStock</text>
  <text x="98" y="184" fill="#bbf7d0" font-family="Arial, sans-serif" font-size="22" font-weight="700">Inventory System</text>
  <rect x="96" y="246" width="220" height="180" rx="26" fill="#14532d"/>
  <rect x="370" y="246" width="220" height="180" rx="26" fill="#166534"/>
  <rect x="644" y="246" width="220" height="180" rx="26" fill="#1e293b"/>
  <path d="M206 356c42-86 100-86 142 0" fill="none" stroke="#86efac" stroke-width="16" stroke-linecap="round"/>
  <path d="M480 356v-78m0 0c44 6 70 28 78 64m-78-64c-44 6-70 28-78 64" fill="none" stroke="#bef264" stroke-width="12" stroke-linecap="round"/>
  <rect x="696" y="302" width="116" height="16" rx="8" fill="#86efac"/>
  <rect x="696" y="348" width="82" height="16" rx="8" fill="#bbf7d0"/>
</svg>
