<svg xmlns="http://www.w3.org/2000/svg" width="960" height="560" viewBox="0 0 960 560" role="img" aria-labelledby="title desc">
  <title id="title">MosqueInfo project preview</title>
  <desc id="desc">Stylized information portal preview for the MosqueInfo project.</desc>
  <rect width="960" height="560" rx="42" fill="#052e2b"/>
  <rect x="42" y="42" width="876" height="476" rx="32" fill="#0f172a"/>
  <rect x="88" y="86" width="784" height="74" rx="22" fill="#164e63"/>
  <text x="116" y="133" fill="#ecfeff" font-family="Arial, sans-serif" font-size="28" font-weight="800">MosqueInfo</text>
  <text x="90" y="228" fill="#f8fafc" font-family="Arial, sans-serif" font-size="54" font-weight="800">Community hub</text>
  <rect x="90" y="286" width="270" height="144" rx="24" fill="#134e4a"/>
  <rect x="390" y="286" width="190" height="144" rx="24" fill="#155e75"/>
  <rect x="610" y="286" width="260" height="144" rx="24" fill="#1e293b"/>
  <path d="M200 372v-62l44-42 44 42v62" fill="none" stroke="#67e8f9" stroke-width="14" stroke-linecap="round" stroke-linejoin="round"/>
  <path d="M242 267c0-34 36-34 36 0" fill="none" stroke="#a7f3d0" stroke-width="10" stroke-linecap="round"/>
  <circle cx="486" cy="358" r="36" fill="#67e8f9"/>
  <rect x="666" y="332" width="148" height="14" rx="7" fill="#a7f3d0"/>
  <rect x="666" y="366" width="104" height="14" rx="7" fill="#67e8f9"/>
</svg>
