<svg xmlns="http://www.w3.org/2000/svg" width="960" height="560" viewBox="0 0 960 560" role="img" aria-labelledby="title desc">
  <title id="title">MusicStep project preview</title>
  <desc id="desc">Stylized dashboard preview for the MusicStep project.</desc>
  <rect width="960" height="560" rx="42" fill="#0f172a"/>
  <rect x="36" y="36" width="888" height="488" rx="32" fill="#111827"/>
  <circle cx="802" cy="124" r="124" fill="#22d3ee" opacity=".18"/>
  <circle cx="146" cy="440" r="142" fill="#6366f1" opacity=".22"/>
  <rect x="82" y="82" width="796" height="64" rx="18" fill="#1f2937"/>
  <circle cx="116" cy="114" r="9" fill="#fb7185"/>
  <circle cx="144" cy="114" r="9" fill="#fbbf24"/>
  <circle cx="172" cy="114" r="9" fill="#34d399"/>
  <text x="82" y="214" fill="#f8fafc" font-family="Arial, sans-serif" font-size="58" font-weight="800">MusicStep</text>
  <text x="84" y="258" fill="#bae6fd" font-family="Arial, sans-serif" font-size="22" font-weight="700">Music Platform</text>
  <rect x="84" y="314" width="360" height="112" rx="24" fill="#1e293b"/>
  <path d="M140 382c54-80 108 78 162-2s86 18 118-38" fill="none" stroke="#22d3ee" stroke-width="12" stroke-linecap="round"/>
  <circle cx="620" cy="352" r="90" fill="#020617" stroke="#38bdf8" stroke-width="18"/>
  <circle cx="620" cy="352" r="22" fill="#38bdf8"/>
  <rect x="728" y="294" width="96" height="168" rx="18" fill="#312e81"/>
  <rect x="756" y="324" width="40" height="104" rx="20" fill="#a5b4fc"/>
</svg>
