<svg xmlns="http://www.w3.org/2000/svg" width="960" height="560" viewBox="0 0 960 560" role="img" aria-labelledby="title desc">
  <title id="title">TriTrack project preview</title>
  <desc id="desc">Stylized tracking dashboard preview for the TriTrack project.</desc>
  <rect width="960" height="560" rx="42" fill="#111827"/>
  <rect x="54" y="54" width="852" height="452" rx="30" fill="#0f172a"/>
  <rect x="92" y="94" width="184" height="372" rx="24" fill="#1f2937"/>
  <rect x="312" y="94" width="554" height="96" rx="24" fill="#1e293b"/>
  <rect x="312" y="224" width="258" height="242" rx="24" fill="#172554"/>
  <rect x="608" y="224" width="258" height="242" rx="24" fill="#083344"/>
  <text x="330" y="154" fill="#f8fafc" font-family="Arial, sans-serif" font-size="42" font-weight="800">TriTrack</text>
  <text x="112" y="138" fill="#93c5fd" font-family="Arial, sans-serif" font-size="22" font-weight="700">Tracking</text>
  <circle cx="184" cy="268" r="58" fill="#2563eb"/>
  <path d="M362 392l52-62 54 36 58-86" fill="none" stroke="#38bdf8" stroke-width="14" stroke-linecap="round" stroke-linejoin="round"/>
  <rect x="654" y="284" width="144" height="16" rx="8" fill="#67e8f9"/>
  <rect x="654" y="330" width="96" height="16" rx="8" fill="#93c5fd"/>
  <rect x="654" y="376" width="164" height="16" rx="8" fill="#60a5fa"/>
</svg>
